<svg width="27" height="17" viewBox="0 0 27 17" fill="none" xmlns="http://www.w3.org/2000/svg">
<path d="M22.4021 3.45545C21.1904 2.40861 19.8221 1.59258 18.3301 1.02932C16.7887 0.44408 15.1622 0.147339 13.4999 0.147339C11.8376 0.147339 10.211 0.44408 8.66961 1.02932C7.18041 1.59532 5.80936 2.41136 4.59767 3.45545C2.15231 5.56835 0.531231 8.47806 0.0366637 11.6543C-0.100716 12.5308 0.152063 13.4182 0.72631 14.0914C1.30056 14.7646 2.13857 15.1492 3.02055 15.1492H10.7468C11.2524 16.1576 12.2964 16.8527 13.4999 16.8527C14.7033 16.8527 15.7474 16.1576 16.253 15.1492H23.9792C24.8639 15.1492 25.6992 14.7646 26.2735 14.0914C26.8505 13.4182 27.1005 12.5308 26.9631 11.6543C26.4685 8.47809 24.8474 5.56835 22.4021 3.45545ZM13.4999 14.9294C13.0465 14.9294 12.6536 14.6657 12.464 14.2865C12.3871 14.1326 12.3459 13.9595 12.3459 13.7754C12.3459 13.138 12.8624 12.6214 13.4999 12.6214C13.8763 12.6214 14.2115 12.8028 14.4203 13.0803C14.5659 13.2726 14.6538 13.5144 14.6538 13.7754C14.6538 14.4129 14.1373 14.9294 13.4999 14.9294ZM24.1853 12.3055C24.1468 12.3494 24.0808 12.4016 23.9792 12.4016H16.253C15.7474 11.3933 14.7033 10.6981 13.4999 10.6981C13.4119 10.6981 13.324 10.7009 13.2361 10.7091L9.70818 6.04915C9.1037 5.25235 7.87003 6.01343 8.30965 6.9119L10.8814 12.1598C10.832 12.2367 10.788 12.3192 10.7468 12.4016H3.02055C2.91614 12.4016 2.8502 12.3494 2.81448 12.3054C2.77602 12.2615 2.7348 12.1845 2.75129 12.0801C3.14694 9.54685 4.44106 7.22238 6.3946 5.53535C7.36176 4.70008 8.4553 4.0489 9.64501 3.5983C10.5325 3.26034 11.4584 3.04603 12.4036 2.94986V5.18091C12.4036 5.78813 12.8954 6.27995 13.5026 6.27995C14.1098 6.27995 14.6016 5.78813 14.6016 5.18091V2.94986C15.5468 3.04328 16.47 3.26034 17.3602 3.5983C18.5499 4.0489 19.6435 4.70008 20.6106 5.53535C22.5642 7.22238 23.8583 9.54685 24.254 12.0801C24.2649 12.1873 24.2237 12.2615 24.1853 12.3055Z" fill="#0037A1"/>
</svg>
