<svg width="71" height="72" viewBox="0 0 71 72" fill="none" xmlns="http://www.w3.org/2000/svg">
<path d="M69.6719 1.18506V51.0038H44.5791C45.4126 49.4991 45.8882 47.7583 45.8882 45.9054C45.8882 45.8574 45.8882 45.8078 45.8868 45.7598C45.8116 40.1151 41.3275 35.5629 35.8068 35.5629C30.2861 35.5629 25.802 40.1151 25.7268 45.7598C25.7253 45.8078 25.7253 45.8574 25.7253 45.9054C25.7253 47.7583 26.201 49.4991 27.0345 51.0038H1.94165V1.18506H69.6719Z" stroke="#1974DF" stroke-width="2" stroke-miterlimit="10" stroke-linecap="round" stroke-linejoin="round"/>
<path d="M64.5602 6.4292V45.7598H45.8869C45.8116 40.1152 41.3275 35.563 35.8069 35.563C30.2862 35.563 25.8021 40.1152 25.7268 45.7598H7.05347V6.4292H64.5602Z" stroke="#1974DF" stroke-width="2" stroke-miterlimit="10" stroke-linecap="round" stroke-linejoin="round"/>
<path d="M45.8882 45.9055C45.8882 47.7584 45.4126 49.4991 44.5791 51.0039C43.588 52.7971 42.0871 54.2567 40.2795 55.1759C38.932 55.862 37.4127 56.248 35.8068 56.248C34.2009 56.248 32.6815 55.862 31.334 55.1759C29.5265 54.2567 28.0256 52.7971 27.0345 51.0039C26.201 49.4991 25.7253 47.7584 25.7253 45.9055C25.7253 45.8574 25.7253 45.8079 25.7268 45.7598C25.802 40.1151 30.2861 35.563 35.8068 35.563C41.3275 35.563 45.8116 40.1151 45.8868 45.7598C45.8882 45.8079 45.8882 45.8574 45.8882 45.9055Z" stroke="#1974DF" stroke-width="2" stroke-miterlimit="10" stroke-linecap="round" stroke-linejoin="round"/>
<path d="M40.2795 55.1759V70.6693L35.8067 66.0807L31.334 70.6693V55.1759C32.6815 55.862 34.2008 56.248 35.8067 56.248C37.4127 56.248 38.932 55.862 40.2795 55.1759Z" stroke="#1974DF" stroke-width="2" stroke-miterlimit="10" stroke-linecap="round" stroke-linejoin="round"/>
<path d="M17.2769 12.9843H54.3369" stroke="#1974DF" stroke-width="2" stroke-miterlimit="10" stroke-linecap="round" stroke-linejoin="round"/>
<path d="M17.2769 20.8503H54.3369" stroke="#1974DF" stroke-width="2" stroke-miterlimit="10" stroke-linecap="round" stroke-linejoin="round"/>
<path d="M24.3054 28.7166H47.3082" stroke="#1974DF" stroke-width="2" stroke-miterlimit="10" stroke-linecap="round" stroke-linejoin="round"/>
</svg>
