<svg width="72" height="72" viewBox="0 0 72 72" fill="none" xmlns="http://www.w3.org/2000/svg">
<path d="M45.72 44.1561L28.62 27.0561C29.3487 24.9048 29.4992 22.5996 29.0563 20.3718C28.6135 18.144 27.5929 16.0716 26.0969 14.3624C24.6007 12.6533 22.6817 11.3673 20.5321 10.6335C18.3824 9.89963 16.0777 9.74365 13.8488 10.1812C13.6494 10.2212 13.4646 10.3145 13.3141 10.4512C13.1635 10.5879 13.0528 10.7628 12.9938 10.9574C12.9327 11.1518 12.9255 11.3591 12.9731 11.5573C13.0207 11.7554 13.1211 11.9369 13.2638 12.0824L18.7988 17.6061L17.1563 23.7261L11.0475 25.3911L5.51252 19.8674C5.36822 19.7228 5.18725 19.6202 4.98905 19.5707C4.79086 19.5211 4.58291 19.5265 4.38752 19.5861C4.19294 19.6452 4.018 19.7559 3.88132 19.9065C3.74464 20.057 3.65131 20.2418 3.61127 20.4411C3.175 22.6703 3.33171 24.9749 4.06572 27.1243C4.79973 29.2738 6.0853 31.193 7.79385 32.6897C9.50239 34.1864 11.574 35.2081 13.8014 35.6528C16.0288 36.0975 18.334 35.9496 20.4863 35.2236L37.575 52.3236C36.9837 54.1989 36.842 56.1869 37.1611 58.127C37.4804 60.0672 38.2516 61.905 39.4125 63.4919C40.5734 65.0789 42.0914 66.3704 43.8438 67.262C45.5962 68.1537 47.5339 68.6206 49.5 68.6249C51.3027 68.6184 53.0827 68.2229 54.7183 67.4652C56.3541 66.7075 57.8068 65.6056 58.9775 64.2347C60.148 62.8637 61.0088 61.2563 61.501 59.5221C61.9932 57.788 62.105 55.9679 61.829 54.1865C61.5529 52.4052 60.8956 50.7043 59.9017 49.2004C58.9078 47.6965 57.6009 46.4249 56.0704 45.4725C54.5398 44.5202 52.8217 43.9095 51.0334 43.6824C49.2451 43.4551 47.4289 43.6168 45.7088 44.1561H45.72ZM56.7675 63.3599C55.8186 64.322 54.6867 65.0844 53.4387 65.6022C52.1905 66.12 50.8513 66.3827 49.5 66.3749C47.8374 66.3731 46.2001 65.9681 44.7283 65.1946C43.2566 64.4212 41.9944 63.3025 41.0497 61.9343C40.1052 60.566 39.5064 58.9892 39.3049 57.3389C39.1033 55.6886 39.3049 54.0139 39.8925 52.4586C39.9772 52.2527 39.9989 52.0263 39.955 51.8079C39.9109 51.5897 39.803 51.3894 39.645 51.2324L21.5438 33.1199C21.3868 32.9619 21.1865 32.854 20.9682 32.81C20.75 32.7659 20.5235 32.7876 20.3175 32.8724C18.7105 33.5138 16.972 33.7567 15.2507 33.5803C13.5294 33.404 11.8763 32.8136 10.4327 31.8597C8.98909 30.9057 7.7978 29.6166 6.96061 28.1022C6.12341 26.588 5.66516 24.8935 5.62502 23.1636L9.91127 27.4386C10.0544 27.5852 10.2348 27.6899 10.4331 27.7415C10.6313 27.793 10.8399 27.7895 11.0363 27.7311L18.405 25.7624C18.5967 25.7115 18.7717 25.6108 18.9119 25.4705C19.0522 25.3302 19.1529 25.1554 19.2038 24.9636L21.1725 17.5949C21.2308 17.3985 21.2344 17.19 21.1829 16.9917C21.1312 16.7934 21.0266 16.6131 20.88 16.4699L16.5938 12.1949C18.3246 12.2324 20.0205 12.6891 21.5363 13.5255C23.0521 14.3621 24.3424 15.5535 25.2969 16.9979C26.2513 18.4423 26.8414 20.0965 27.0166 21.8189C27.1917 23.5413 26.9467 25.2804 26.3025 26.8874C26.2111 27.0915 26.1826 27.3183 26.2206 27.5387C26.2588 27.7592 26.3617 27.9633 26.5163 28.1249L44.6288 46.2374C44.7848 46.3932 44.9831 46.4997 45.1992 46.5437C45.4151 46.5877 45.6393 46.5672 45.8438 46.4849C48.0435 45.6392 50.4673 45.5756 52.7083 46.3049C54.9494 47.0342 56.8715 48.512 58.1522 50.4904C59.4329 52.4688 59.9943 54.8275 59.7421 57.1707C59.49 59.5139 58.4397 61.6992 56.7675 63.3599Z" fill="#1974DF"/>
<path d="M54.135 52.2562C54.0824 52.0665 53.981 51.894 53.8408 51.7558C53.7007 51.6176 53.5266 51.5186 53.3363 51.4687L48.4988 50.1637C48.3023 50.1054 48.0939 50.1018 47.8955 50.1534C47.6973 50.205 47.5169 50.3096 47.3738 50.4562L43.875 53.9999C43.7284 54.143 43.6238 54.3235 43.5722 54.5217C43.5207 54.72 43.5243 54.9286 43.5825 55.1249L44.8763 59.9737C44.9289 60.1634 45.0304 60.3359 45.1705 60.4741C45.3106 60.6123 45.4847 60.7112 45.675 60.7612L50.5238 62.0662C50.621 62.0779 50.7191 62.0779 50.8163 62.0662C51.1114 62.0649 51.3942 61.9478 51.6038 61.7399L55.125 58.1962C55.2716 58.0531 55.3762 57.8726 55.4279 57.6744C55.4794 57.4762 55.4758 57.2676 55.4175 57.0712L54.135 52.2562ZM50.4675 59.6924L46.8788 58.7249L45.9113 55.1249L48.5438 52.4924L52.1325 53.4599L53.0888 57.0487L50.4675 59.6924Z" fill="#1974DF"/>
</svg>
