<svg width="24" height="35" viewBox="0 0 24 35" fill="none" xmlns="http://www.w3.org/2000/svg">
<g clip-path="url(#clip0_62_451)">
<path fill-rule="evenodd" clip-rule="evenodd" d="M12 1.52588e-05C5.36571 1.52588e-05 0 5.36573 0 12C0 19.1486 7.57714 29.0057 10.6971 32.76C11.3829 33.5829 12.6343 33.5829 13.32 32.76C16.4229 29.0057 24 19.1486 24 12C24 5.36573 18.6343 1.52588e-05 12 1.52588e-05ZM12 16.2857C9.63429 16.2857 7.71429 14.3657 7.71429 12C7.71429 9.6343 9.63429 7.7143 12 7.7143C14.3657 7.7143 16.2857 9.6343 16.2857 12C16.2857 14.3657 14.3657 16.2857 12 16.2857Z" fill="#333333"/>
</g>
<defs>
<clipPath id="clip0_62_451">
<rect width="24" height="34.2857" fill="white"/>
</clipPath>
</defs>
</svg>
