<svg width="72" height="72" viewBox="0 0 72 72" fill="none" xmlns="http://www.w3.org/2000/svg">
<path d="M29.9614 32.5608C24.4434 32.5608 19.9535 37.0507 19.9535 42.5687C19.9535 48.0868 24.4427 52.576 29.9614 52.576C35.4802 52.576 39.9694 48.0868 39.9694 42.5687C39.9694 37.0507 35.4795 32.5608 29.9614 32.5608ZM29.9614 50.4243C25.6301 50.4243 22.1059 46.9008 22.1059 42.5695C22.1059 38.2381 25.6301 34.7139 29.9614 34.7139C34.2935 34.7139 37.817 38.2381 37.817 42.5695C37.817 46.9008 34.2928 50.4243 29.9614 50.4243Z" fill="#1974DF"/>
<path d="M8.8959 32.5615C8.30112 32.5615 7.8197 33.0429 7.8197 33.6377V51.4998C7.8197 52.0939 8.30112 52.576 8.8959 52.576C9.49068 52.576 9.9721 52.0939 9.9721 51.4998V33.6377C9.9721 33.0429 9.49068 32.5615 8.8959 32.5615Z" fill="#1974DF"/>
<path d="M50.6877 32.5615C50.0936 32.5615 49.6115 33.0429 49.6115 33.6377V51.4998C49.6115 52.0939 50.0936 52.576 50.6877 52.576C51.2817 52.576 51.7639 52.0939 51.7639 51.4998V33.6377C51.7639 33.0429 51.2824 32.5615 50.6877 32.5615Z" fill="#1974DF"/>
<path d="M68.3653 13.7338H15.6903C15.0955 13.7338 14.6141 14.2152 14.6141 14.81V20.1329H9.79268C9.1979 20.1329 8.71648 20.6143 8.71648 21.2091V27.1267H3.38211C2.78733 27.1267 2.30591 27.6081 2.30591 28.2029V56.9353C2.30591 57.5294 2.78733 58.0115 3.38211 58.0115H56.0578C56.6519 58.0115 57.134 57.5294 57.134 56.9353V51.0177H62.4691C63.0632 51.0177 63.5453 50.5355 63.5453 49.9415V44.6186H68.366C68.9601 44.6186 69.4422 44.1364 69.4422 43.5424V14.81C69.4415 14.2152 68.9593 13.7338 68.3653 13.7338ZM4.45831 55.8591V29.2791H54.9816V49.9343C54.9816 49.9364 54.9809 49.9386 54.9809 49.9415C54.9809 49.9443 54.9816 49.9458 54.9816 49.9486V55.8591H4.45831ZM61.3922 48.8653H57.1333V28.2029C57.1333 27.6081 56.6512 27.1267 56.0571 27.1267H10.8689V22.2853H61.3922V48.8653ZM67.2891 42.4662H63.5446V21.2091C63.5446 20.6143 63.0625 20.1329 62.4684 20.1329H16.7665V15.8862H67.2891V42.4662Z" fill="#1974DF"/>
</svg>
