<svg width="32" height="32" viewBox="0 0 32 32" fill="none" xmlns="http://www.w3.org/2000/svg">
<path d="M12.6705 5.67629L11.742 6.04768V6.04768L12.6705 5.67629ZM14.0762 9.19051L15.0047 8.81912V8.81912L14.0762 9.19051ZM13.6489 11.888L14.4171 12.5282L13.6489 11.888ZM12.8923 12.7959L13.6606 13.4361L12.8923 12.7959ZM13.0553 16.3886L12.3482 17.0957L13.0553 16.3886ZM15.6114 18.9447L16.3185 18.2376L15.6114 18.9447ZM19.2041 19.1077L18.564 18.3394V18.3394L19.2041 19.1077ZM20.112 18.3511L20.7521 19.1194H20.7521L20.112 18.3511ZM22.8095 17.9238L22.4381 18.8523L22.8095 17.9238ZM26.3237 19.3295L26.6951 18.401L26.3237 19.3295ZM6.52632 5H10.1946V3H6.52632V5ZM11.742 6.04768L13.1477 9.5619L15.0047 8.81912L13.599 5.3049L11.742 6.04768ZM12.8806 11.2479L12.1241 12.1557L13.6606 13.4361L14.4171 12.5282L12.8806 11.2479ZM12.3482 17.0957L14.9043 19.6518L16.3185 18.2376L13.7624 15.6815L12.3482 17.0957ZM19.8443 19.8759L20.7521 19.1194L19.4718 17.5829L18.564 18.3394L19.8443 19.8759ZM22.4381 18.8523L25.9523 20.258L26.6951 18.401L23.1809 16.9953L22.4381 18.8523ZM27 21.8054V25.4737H29V21.8054H27ZM25.4737 27C14.1664 27 5 17.8336 5 6.52632H3C3 18.9382 13.0618 29 25.4737 29V27ZM27 25.4737C27 26.3166 26.3166 27 25.4737 27V29C27.4212 29 29 27.4212 29 25.4737H27ZM25.9523 20.258C26.5851 20.5111 27 21.1239 27 21.8054H29C29 20.3061 28.0872 18.9578 26.6951 18.401L25.9523 20.258ZM20.7521 19.1194C21.2224 18.7275 21.8697 18.6249 22.4381 18.8523L23.1809 16.9953C21.9304 16.4951 20.5064 16.7207 19.4718 17.5829L20.7521 19.1194ZM14.9043 19.6518C16.2452 20.9928 18.3875 21.0899 19.8443 19.8759L18.564 18.3394C17.9017 18.8913 16.928 18.8471 16.3185 18.2376L14.9043 19.6518ZM12.1241 12.1557C10.9101 13.6125 11.0072 15.7548 12.3482 17.0957L13.7624 15.6815C13.1529 15.072 13.1087 14.0983 13.6606 13.4361L12.1241 12.1557ZM13.1477 9.5619C13.3751 10.1303 13.2725 10.7776 12.8806 11.2479L14.4171 12.5282C15.2793 11.4936 15.5049 10.0696 15.0047 8.81912L13.1477 9.5619ZM10.1946 5C10.8761 5 11.4889 5.41492 11.742 6.04768L13.599 5.3049C13.0422 3.91282 11.6939 3 10.1946 3V5ZM6.52632 3C4.57879 3 3 4.57879 3 6.52632H5C5 5.68336 5.68336 5 6.52632 5V3Z" fill="#333333"/>
</svg>
