<svg width="72" height="72" viewBox="0 0 72 72" fill="none" xmlns="http://www.w3.org/2000/svg">
<path d="M46.0607 40.0607C46.6464 39.4749 46.6464 38.5251 46.0607 37.9393C45.4749 37.3536 44.5251 37.3536 43.9393 37.9393L46.0607 40.0607ZM33 51L31.9393 52.0607C32.5251 52.6464 33.4749 52.6464 34.0607 52.0607L33 51ZM28.0607 43.9393C27.4749 43.3536 26.5251 43.3536 25.9393 43.9393C25.3536 44.5251 25.3536 45.4749 25.9393 46.0607L28.0607 43.9393ZM43.9393 37.9393L31.9393 49.9393L34.0607 52.0607L46.0607 40.0607L43.9393 37.9393ZM34.0607 49.9393L28.0607 43.9393L25.9393 46.0607L31.9393 52.0607L34.0607 49.9393Z" fill="#1974DF"/>
<path d="M54 63H18C16.3432 63 15 61.6568 15 60L15 12C15 10.3431 16.3431 9 18 9L40.6893 9C41.5249 9 42.3228 9.34858 42.8905 9.96178L56.2013 24.3374C56.7148 24.8919 57 25.6198 57 26.3756L57 60C57 61.6568 55.6569 63 54 63Z" stroke="#1974DF" stroke-width="3" stroke-linecap="round" stroke-linejoin="round"/>
<path d="M57 27L42 27C40.3431 27 39 25.6569 39 24L39 9" stroke="#1974DF" stroke-width="3" stroke-linecap="round" stroke-linejoin="round"/>
</svg>
