<?xml version="1.0" standalone="no"?>
<!DOCTYPE svg PUBLIC "-//W3C//DTD SVG 20010904//EN"
 "http://www.w3.org/TR/2001/REC-SVG-20010904/DTD/svg10.dtd">
<svg version="1.0" xmlns="http://www.w3.org/2000/svg"
 width="512.000000pt" height="512.000000pt" viewBox="0 0 512.000000 512.000000"
 preserveAspectRatio="xMidYMid meet">

<g transform="translate(0.000000,512.000000) scale(0.100000,-0.100000)"
fill="#000000" stroke="none">
<path d="M1625 5106 c-155 -38 -269 -163 -295 -323 -6 -32 -10 -149 -10 -260
l0 -202 -477 -3 -478 -3 -56 -26 c-71 -33 -125 -87 -158 -158 l-26 -56 0 -470
c0 -438 1 -473 19 -519 26 -68 89 -133 161 -167 l60 -29 478 0 477 0 0 -1247
c0 -744 4 -1272 10 -1306 27 -167 151 -295 315 -327 44 -8 465 -10 1556 -8
l1495 3 76 38 c118 58 195 156 218 277 6 34 10 717 10 1924 l0 1871 -503 502
-502 503 -1160 -1 c-887 -1 -1172 -4 -1210 -13z m2267 -468 l3 -333 31 -65
c39 -83 111 -155 194 -194 l65 -31 333 -3 332 -3 0 -1823 c0 -2046 6 -1880
-75 -1961 -80 -81 44 -75 -1616 -75 -1604 0 -1517 -3 -1593 55 -18 14 -46 49
-62 77 l-29 53 0 1275 0 1275 1050 5 1050 5 43 23 c97 52 153 128 173 236 6
36 9 217 7 489 l-3 432 -26 55 c-33 70 -89 126 -159 159 l-55 26 -1043 3
-1044 2 4 233 3 232 29 53 c32 57 76 96 134 117 30 11 230 14 1144 14 l1107 1
3 -332z m606 -476 c-170 -2 -257 1 -288 10 -58 16 -141 96 -158 154 -8 28 -12
124 -12 290 l0 249 350 -350 350 -350 -242 -3z m-925 -25 c74 -56 72 -40 72
-537 0 -494 1 -483 -67 -532 l-33 -23 -1578 -3 c-1750 -2 -1609 -8 -1664 65
l-28 36 -3 431 c-2 237 0 446 3 464 8 42 68 109 109 121 18 6 673 9 1592 8
l1561 -2 36 -28z"/>
<path d="M3351 2291 c-23 -23 -501 -1452 -501 -1498 0 -34 37 -73 70 -73 55 0
57 6 315 779 158 475 243 745 239 757 -20 54 -85 73 -123 35z"/>
<path d="M2353 1858 c-161 -161 -296 -303 -301 -318 -5 -14 -6 -34 -2 -45 14
-36 604 -615 627 -615 38 0 73 38 73 78 0 34 -16 52 -262 299 l-263 263 263
263 c235 235 262 265 262 295 0 42 -30 72 -72 72 -29 0 -63 -31 -325 -292z"/>
<path d="M3590 2130 c-12 -12 -20 -33 -20 -52 0 -29 28 -61 262 -295 l262
-263 -262 -263 c-243 -245 -262 -266 -262 -299 0 -57 56 -91 107 -64 33 17
576 561 592 593 6 12 11 30 11 39 0 10 -133 151 -302 321 -274 274 -306 303
-335 303 -20 0 -41 -8 -53 -20z"/>
<path d="M564 3989 c-41 -21 -44 -45 -44 -393 0 -322 1 -334 21 -360 27 -34
77 -36 107 -3 19 21 22 34 22 120 l0 97 204 0 204 0 4 -99 c2 -80 7 -103 22
-120 26 -28 79 -28 106 1 19 21 20 33 20 366 0 223 -4 350 -11 363 -25 48
-105 44 -128 -7 -7 -15 -11 -88 -11 -189 l0 -165 -205 0 -205 0 0 174 c0 151
-2 176 -17 194 -22 26 -61 35 -89 21z"/>
<path d="M1363 3988 c-48 -23 -51 -103 -4 -127 11 -6 60 -11 110 -11 l90 0 3
-299 c3 -278 4 -300 22 -320 22 -25 73 -28 102 -7 18 14 19 32 24 318 l5 303
103 5 c88 4 106 8 118 24 21 29 18 80 -7 102 -19 18 -41 19 -283 21 -170 1
-269 -2 -283 -9z"/>
<path d="M2073 3976 l-28 -24 0 -352 0 -352 24 -19 c30 -25 76 -24 101 1 19
19 20 33 20 216 0 114 4 193 9 190 5 -3 30 -42 56 -86 26 -44 55 -85 65 -90
24 -13 136 -13 160 0 10 5 40 47 66 92 l49 83 5 -185 c5 -198 12 -225 55 -236
44 -11 75 4 91 42 12 30 14 92 12 366 l-3 330 -28 24 c-61 53 -85 31 -222
-198 -55 -93 -102 -168 -105 -168 -3 0 -50 75 -105 168 -137 229 -161 251
-222 198z"/>
<path d="M2980 3993 c-8 -3 -23 -12 -32 -21 -17 -14 -18 -44 -18 -369 0 -340
1 -354 20 -373 19 -19 33 -20 253 -20 222 0 235 1 252 20 25 28 23 76 -4 103
-20 21 -32 22 -196 25 l-174 3 -3 294 c-3 279 -4 295 -23 314 -23 22 -53 32
-75 24z"/>
</g>
</svg>
